<?xml version="1.0" encoding="UTF-8" standalone="no"?>
<!DOCTYPE svg PUBLIC "-//W3C//DTD SVG 1.1//EN"
 "http://www.w3.org/Graphics/SVG/1.1/DTD/svg11.dtd">
<!-- Generated by graphviz version 8.0.1 (20230327.1645)
 -->
<!-- Title: Some Unique Identifier Pages: 1 -->
<svg width="473pt" height="463pt"
 viewBox="0.00 0.00 473.25 462.69" xmlns="http://www.w3.org/2000/svg" xmlns:xlink="http://www.w3.org/1999/xlink">
<g id="graph0" class="graph" transform="scale(1 1) rotate(0) translate(4 458.69)">
<title>Some Unique Identifier</title>
<polygon fill="white" stroke="none" points="-4,4 -4,-458.69 469.25,-458.69 469.25,4 -4,4"/>
<!-- Start -->
<g id="node1" class="node">
<title>Start</title>
<ellipse fill="none" stroke="black" cx="27.95" cy="-428.31" rx="27.9" ry="18"/>
<text text-anchor="middle" x="27.95" y="-424.61" font-family="Times New Roman,serif" font-size="14.00">Start</text>
</g>
<!-- 2 -->
<g id="node3" class="node">
<title>2</title>
<ellipse fill="none" stroke="black" cx="106.09" cy="-429.49" rx="27" ry="18"/>
<text text-anchor="middle" x="106.09" y="-425.79" font-family="Times New Roman,serif" font-size="14.00">2</text>
</g>
<!-- Start&#45;&#45;2 -->
<g id="edge1" class="edge">
<title>Start&#45;&#45;2</title>
<path fill="none" stroke="black" d="M56.16,-428.73C63.5,-428.85 71.4,-428.97 78.7,-429.08"/>
</g>
<!-- 4 -->
<g id="node5" class="node">
<title>4</title>
<ellipse fill="none" stroke="black" cx="38.36" cy="-351.31" rx="27" ry="18"/>
<text text-anchor="middle" x="38.36" y="-347.61" font-family="Times New Roman,serif" font-size="14.00">4</text>
</g>
<!-- Start&#45;&#45;4 -->
<g id="edge34" class="edge">
<title>Start&#45;&#45;4</title>
<path fill="none" stroke="black" d="M30.42,-410.06C32.06,-397.87 34.22,-381.91 35.88,-369.69"/>
</g>
<!-- 1 -->
<g id="node2" class="node">
<title>1</title>
<ellipse fill="none" stroke="black" cx="437.68" cy="-44.4" rx="27" ry="18"/>
<text text-anchor="middle" x="437.68" y="-40.7" font-family="Times New Roman,serif" font-size="14.00">1</text>
</g>
<!-- 24 -->
<g id="node25" class="node">
<title>24</title>
<ellipse fill="none" stroke="black" cx="355.69" cy="-35.05" rx="27" ry="18"/>
<text text-anchor="middle" x="355.69" y="-31.35" font-family="Times New Roman,serif" font-size="14.00">24</text>
</g>
<!-- 1&#45;&#45;24 -->
<g id="edge29" class="edge">
<title>1&#45;&#45;24</title>
<path fill="none" stroke="black" d="M410.83,-41.34C401.77,-40.3 391.66,-39.15 382.6,-38.12"/>
</g>
<!-- End -->
<g id="node34" class="node">
<title>End</title>
<ellipse fill="none" stroke="black" cx="437.26" cy="-126.15" rx="27" ry="18"/>
<text text-anchor="middle" x="437.26" y="-122.45" font-family="Times New Roman,serif" font-size="14.00">End</text>
</g>
<!-- 1&#45;&#45;End -->
<g id="edge28" class="edge">
<title>1&#45;&#45;End</title>
<path fill="none" stroke="black" d="M437.58,-62.54C437.52,-75.99 437.42,-94.26 437.35,-107.77"/>
</g>
<!-- 3 -->
<g id="node4" class="node">
<title>3</title>
<ellipse fill="none" stroke="black" cx="117.42" cy="-352.44" rx="27" ry="18"/>
<text text-anchor="middle" x="117.42" y="-348.74" font-family="Times New Roman,serif" font-size="14.00">3</text>
</g>
<!-- 2&#45;&#45;3 -->
<g id="edge35" class="edge">
<title>2&#45;&#45;3</title>
<path fill="none" stroke="black" d="M108.77,-411.23C110.57,-399.04 112.92,-383.05 114.71,-370.83"/>
</g>
<!-- 17 -->
<g id="node18" class="node">
<title>17</title>
<ellipse fill="none" stroke="black" cx="177.67" cy="-414.76" rx="27" ry="18"/>
<text text-anchor="middle" x="177.67" y="-411.06" font-family="Times New Roman,serif" font-size="14.00">17</text>
</g>
<!-- 2&#45;&#45;17 -->
<g id="edge2" class="edge">
<title>2&#45;&#45;17</title>
<path fill="none" stroke="black" d="M132.34,-424.09C138.56,-422.81 145.2,-421.44 151.43,-420.16"/>
</g>
<!-- 3&#45;&#45;4 -->
<g id="edge10" class="edge">
<title>3&#45;&#45;4</title>
<path fill="none" stroke="black" d="M90.21,-352.05C82.26,-351.94 73.57,-351.81 65.62,-351.7"/>
</g>
<!-- 5 -->
<g id="node6" class="node">
<title>5</title>
<ellipse fill="none" stroke="black" cx="65.24" cy="-283.38" rx="27" ry="18"/>
<text text-anchor="middle" x="65.24" y="-279.68" font-family="Times New Roman,serif" font-size="14.00">5</text>
</g>
<!-- 3&#45;&#45;5 -->
<g id="edge63" class="edge">
<title>3&#45;&#45;5</title>
<path fill="none" stroke="black" d="M105.05,-336.07C96.73,-325.06 85.81,-310.61 77.51,-299.63"/>
</g>
<!-- 6 -->
<g id="node7" class="node">
<title>6</title>
<ellipse fill="none" stroke="black" cx="119.38" cy="-266.94" rx="27" ry="18"/>
<text text-anchor="middle" x="119.38" y="-263.24" font-family="Times New Roman,serif" font-size="14.00">6</text>
</g>
<!-- 3&#45;&#45;6 -->
<g id="edge50" class="edge">
<title>3&#45;&#45;6</title>
<path fill="none" stroke="black" d="M117.83,-334.31C118.16,-319.89 118.62,-299.82 118.96,-285.34"/>
</g>
<!-- 16 -->
<g id="node17" class="node">
<title>16</title>
<ellipse fill="none" stroke="black" cx="202.72" cy="-368.36" rx="27" ry="18"/>
<text text-anchor="middle" x="202.72" y="-364.66" font-family="Times New Roman,serif" font-size="14.00">16</text>
</g>
<!-- 3&#45;&#45;16 -->
<g id="edge9" class="edge">
<title>3&#45;&#45;16</title>
<path fill="none" stroke="black" d="M143.48,-357.3C153.86,-359.24 165.81,-361.47 176.24,-363.42"/>
</g>
<!-- 3&#45;&#45;17 -->
<g id="edge62" class="edge">
<title>3&#45;&#45;17</title>
<path fill="none" stroke="black" d="M132.31,-367.84C141.65,-377.5 153.64,-389.9 162.95,-399.53"/>
</g>
<!-- 4&#45;&#45;5 -->
<g id="edge11" class="edge">
<title>4&#45;&#45;5</title>
<path fill="none" stroke="black" d="M45.42,-333.46C49.41,-323.4 54.36,-310.88 58.32,-300.88"/>
</g>
<!-- 5&#45;&#45;6 -->
<g id="edge12" class="edge">
<title>5&#45;&#45;6</title>
<path fill="none" stroke="black" d="M90.09,-275.84C91.53,-275.4 92.99,-274.96 94.43,-274.52"/>
</g>
<!-- 8 -->
<g id="node9" class="node">
<title>8</title>
<ellipse fill="none" stroke="black" cx="80.62" cy="-195.34" rx="27" ry="18"/>
<text text-anchor="middle" x="80.62" y="-191.64" font-family="Times New Roman,serif" font-size="14.00">8</text>
</g>
<!-- 5&#45;&#45;8 -->
<g id="edge54" class="edge">
<title>5&#45;&#45;8</title>
<path fill="none" stroke="black" d="M68.42,-265.14C71.06,-250.03 74.8,-228.66 77.43,-213.56"/>
</g>
<!-- 7 -->
<g id="node8" class="node">
<title>7</title>
<ellipse fill="none" stroke="black" cx="137.72" cy="-190.04" rx="27" ry="18"/>
<text text-anchor="middle" x="137.72" y="-186.34" font-family="Times New Roman,serif" font-size="14.00">7</text>
</g>
<!-- 6&#45;&#45;7 -->
<g id="edge51" class="edge">
<title>6&#45;&#45;7</title>
<path fill="none" stroke="black" d="M123.72,-248.72C126.65,-236.46 130.48,-220.37 133.4,-208.14"/>
</g>
<!-- 6&#45;&#45;8 -->
<g id="edge65" class="edge">
<title>6&#45;&#45;8</title>
<path fill="none" stroke="black" d="M109.99,-249.61C103.9,-238.35 95.99,-223.74 89.91,-212.51"/>
</g>
<!-- 15 -->
<g id="node16" class="node">
<title>15</title>
<ellipse fill="none" stroke="black" cx="198.03" cy="-288.32" rx="27" ry="18"/>
<text text-anchor="middle" x="198.03" y="-284.62" font-family="Times New Roman,serif" font-size="14.00">15</text>
</g>
<!-- 6&#45;&#45;15 -->
<g id="edge13" class="edge">
<title>6&#45;&#45;15</title>
<path fill="none" stroke="black" d="M144.7,-273.83C153.68,-276.27 163.78,-279.01 172.76,-281.45"/>
</g>
<!-- 7&#45;&#45;8 -->
<g id="edge22" class="edge">
<title>7&#45;&#45;8</title>
<path fill="none" stroke="black" d="M110.5,-192.57C109.58,-192.65 108.66,-192.74 107.74,-192.82"/>
</g>
<!-- 11 -->
<g id="node12" class="node">
<title>11</title>
<ellipse fill="none" stroke="black" cx="124.52" cy="-116.05" rx="27" ry="18"/>
<text text-anchor="middle" x="124.52" y="-112.35" font-family="Times New Roman,serif" font-size="14.00">11</text>
</g>
<!-- 7&#45;&#45;11 -->
<g id="edge52" class="edge">
<title>7&#45;&#45;11</title>
<path fill="none" stroke="black" d="M134.45,-171.75C132.42,-160.37 129.82,-145.78 127.79,-134.39"/>
</g>
<!-- 14 -->
<g id="node15" class="node">
<title>14</title>
<ellipse fill="none" stroke="black" cx="214.84" cy="-209.64" rx="27" ry="18"/>
<text text-anchor="middle" x="214.84" y="-205.94" font-family="Times New Roman,serif" font-size="14.00">14</text>
</g>
<!-- 7&#45;&#45;14 -->
<g id="edge21" class="edge">
<title>7&#45;&#45;14</title>
<path fill="none" stroke="black" d="M163.4,-196.57C171.72,-198.69 180.96,-201.03 189.27,-203.15"/>
</g>
<!-- 9 -->
<g id="node10" class="node">
<title>9</title>
<ellipse fill="none" stroke="black" cx="55.96" cy="-118.45" rx="27" ry="18"/>
<text text-anchor="middle" x="55.96" y="-114.75" font-family="Times New Roman,serif" font-size="14.00">9</text>
</g>
<!-- 8&#45;&#45;9 -->
<g id="edge23" class="edge">
<title>8&#45;&#45;9</title>
<path fill="none" stroke="black" d="M74.9,-177.51C70.94,-165.17 65.7,-148.82 61.74,-136.45"/>
</g>
<!-- 8&#45;&#45;11 -->
<g id="edge55" class="edge">
<title>8&#45;&#45;11</title>
<path fill="none" stroke="black" d="M90.14,-178.13C97.51,-164.83 107.65,-146.51 115.01,-133.22"/>
</g>
<!-- 10 -->
<g id="node11" class="node">
<title>10</title>
<ellipse fill="none" stroke="black" cx="111.5" cy="-49.58" rx="27" ry="18"/>
<text text-anchor="middle" x="111.5" y="-45.88" font-family="Times New Roman,serif" font-size="14.00">10</text>
</g>
<!-- 9&#45;&#45;10 -->
<g id="edge33" class="edge">
<title>9&#45;&#45;10</title>
<path fill="none" stroke="black" d="M68.85,-102.48C77.82,-91.35 89.73,-76.57 98.69,-65.47"/>
</g>
<!-- 9&#45;&#45;11 -->
<g id="edge24" class="edge">
<title>9&#45;&#45;11</title>
<path fill="none" stroke="black" d="M83.06,-117.5C87.7,-117.34 92.52,-117.17 97.17,-117.01"/>
</g>
<!-- 10&#45;&#45;11 -->
<g id="edge53" class="edge">
<title>10&#45;&#45;11</title>
<path fill="none" stroke="black" d="M115.06,-67.74C116.9,-77.12 119.13,-88.53 120.97,-97.91"/>
</g>
<!-- 12 -->
<g id="node13" class="node">
<title>12</title>
<ellipse fill="none" stroke="black" cx="193.27" cy="-49.72" rx="27" ry="18"/>
<text text-anchor="middle" x="193.27" y="-46.02" font-family="Times New Roman,serif" font-size="14.00">12</text>
</g>
<!-- 10&#45;&#45;12 -->
<g id="edge32" class="edge">
<title>10&#45;&#45;12</title>
<path fill="none" stroke="black" d="M138.73,-49.63C147.46,-49.64 157.14,-49.66 165.88,-49.67"/>
</g>
<!-- 11&#45;&#45;12 -->
<g id="edge56" class="edge">
<title>11&#45;&#45;12</title>
<path fill="none" stroke="black" d="M140.12,-101C151.37,-90.14 166.49,-75.55 177.73,-64.71"/>
</g>
<!-- 13 -->
<g id="node14" class="node">
<title>13</title>
<ellipse fill="none" stroke="black" cx="191.71" cy="-90.02" rx="27" ry="18"/>
<text text-anchor="middle" x="191.71" y="-86.32" font-family="Times New Roman,serif" font-size="14.00">13</text>
</g>
<!-- 11&#45;&#45;13 -->
<g id="edge25" class="edge">
<title>11&#45;&#45;13</title>
<path fill="none" stroke="black" d="M148.02,-106.94C154.53,-104.42 161.59,-101.68 168.11,-99.16"/>
</g>
<!-- 12&#45;&#45;13 -->
<g id="edge47" class="edge">
<title>12&#45;&#45;13</title>
<path fill="none" stroke="black" d="M192.56,-67.98C192.51,-69.23 192.46,-70.49 192.42,-71.74"/>
</g>
<!-- 22 -->
<g id="node23" class="node">
<title>22</title>
<ellipse fill="none" stroke="black" cx="270.01" cy="-87.59" rx="27" ry="18"/>
<text text-anchor="middle" x="270.01" y="-83.89" font-family="Times New Roman,serif" font-size="14.00">22</text>
</g>
<!-- 12&#45;&#45;22 -->
<g id="edge59" class="edge">
<title>12&#45;&#45;22</title>
<path fill="none" stroke="black" d="M215.06,-60.47C225.34,-65.54 237.58,-71.59 247.9,-76.68"/>
</g>
<!-- 23 -->
<g id="node24" class="node">
<title>23</title>
<ellipse fill="none" stroke="black" cx="267.88" cy="-18" rx="27" ry="18"/>
<text text-anchor="middle" x="267.88" y="-14.3" font-family="Times New Roman,serif" font-size="14.00">23</text>
</g>
<!-- 12&#45;&#45;23 -->
<g id="edge31" class="edge">
<title>12&#45;&#45;23</title>
<path fill="none" stroke="black" d="M216.47,-39.86C225.45,-36.04 235.71,-31.68 244.69,-27.86"/>
</g>
<!-- 13&#45;&#45;22 -->
<g id="edge26" class="edge">
<title>13&#45;&#45;22</title>
<path fill="none" stroke="black" d="M219.09,-89.17C226.77,-88.93 235.1,-88.67 242.77,-88.43"/>
</g>
<!-- 14&#45;&#45;15 -->
<g id="edge48" class="edge">
<title>14&#45;&#45;15</title>
<path fill="none" stroke="black" d="M210.94,-227.89C208.23,-240.6 204.62,-257.48 201.91,-270.17"/>
</g>
<!-- 21 -->
<g id="node22" class="node">
<title>21</title>
<ellipse fill="none" stroke="black" cx="286.87" cy="-167.88" rx="27" ry="18"/>
<text text-anchor="middle" x="286.87" y="-164.18" font-family="Times New Roman,serif" font-size="14.00">21</text>
</g>
<!-- 14&#45;&#45;21 -->
<g id="edge20" class="edge">
<title>14&#45;&#45;21</title>
<path fill="none" stroke="black" d="M235.29,-197.79C244.94,-192.19 256.43,-185.53 266.12,-179.91"/>
</g>
<!-- 15&#45;&#45;16 -->
<g id="edge49" class="edge">
<title>15&#45;&#45;16</title>
<path fill="none" stroke="black" d="M199.1,-306.48C199.86,-319.49 200.88,-336.94 201.65,-349.99"/>
</g>
<!-- 20 -->
<g id="node21" class="node">
<title>20</title>
<ellipse fill="none" stroke="black" cx="275.2" cy="-302.65" rx="27" ry="18"/>
<text text-anchor="middle" x="275.2" y="-298.95" font-family="Times New Roman,serif" font-size="14.00">20</text>
</g>
<!-- 15&#45;&#45;20 -->
<g id="edge14" class="edge">
<title>15&#45;&#45;20</title>
<path fill="none" stroke="black" d="M224.16,-293.17C232.12,-294.65 240.87,-296.27 248.84,-297.75"/>
</g>
<!-- 16&#45;&#45;17 -->
<g id="edge36" class="edge">
<title>16&#45;&#45;17</title>
<path fill="none" stroke="black" d="M193.4,-385.64C191.28,-389.55 189.04,-393.71 186.93,-397.62"/>
</g>
<!-- 18 -->
<g id="node19" class="node">
<title>18</title>
<ellipse fill="none" stroke="black" cx="269.89" cy="-415.37" rx="27" ry="18"/>
<text text-anchor="middle" x="269.89" y="-411.67" font-family="Times New Roman,serif" font-size="14.00">18</text>
</g>
<!-- 16&#45;&#45;18 -->
<g id="edge60" class="edge">
<title>16&#45;&#45;18</title>
<path fill="none" stroke="black" d="M221.43,-381.45C230.75,-387.98 241.98,-395.84 251.28,-402.35"/>
</g>
<!-- 19 -->
<g id="node20" class="node">
<title>19</title>
<ellipse fill="none" stroke="black" cx="281.78" cy="-373.7" rx="27" ry="18"/>
<text text-anchor="middle" x="281.78" y="-370" font-family="Times New Roman,serif" font-size="14.00">19</text>
</g>
<!-- 16&#45;&#45;19 -->
<g id="edge8" class="edge">
<title>16&#45;&#45;19</title>
<path fill="none" stroke="black" d="M229.93,-370.2C237.88,-370.73 246.57,-371.32 254.52,-371.86"/>
</g>
<!-- 17&#45;&#45;18 -->
<g id="edge3" class="edge">
<title>17&#45;&#45;18</title>
<path fill="none" stroke="black" d="M205.09,-414.94C216.88,-415.02 230.63,-415.11 242.42,-415.19"/>
</g>
<!-- 18&#45;&#45;19 -->
<g id="edge37" class="edge">
<title>18&#45;&#45;19</title>
<path fill="none" stroke="black" d="M275,-397.46C275.53,-395.6 276.07,-393.72 276.6,-391.86"/>
</g>
<!-- 28 -->
<g id="node29" class="node">
<title>28</title>
<ellipse fill="none" stroke="black" cx="349.34" cy="-354.3" rx="27" ry="18"/>
<text text-anchor="middle" x="349.34" y="-350.6" font-family="Times New Roman,serif" font-size="14.00">28</text>
</g>
<!-- 18&#45;&#45;28 -->
<g id="edge57" class="edge">
<title>18&#45;&#45;28</title>
<path fill="none" stroke="black" d="M287.92,-401.51C300.92,-391.52 318.4,-378.09 331.38,-368.11"/>
</g>
<!-- 29 -->
<g id="node30" class="node">
<title>29</title>
<ellipse fill="none" stroke="black" cx="350.95" cy="-436.69" rx="27" ry="18"/>
<text text-anchor="middle" x="350.95" y="-432.99" font-family="Times New Roman,serif" font-size="14.00">29</text>
</g>
<!-- 18&#45;&#45;29 -->
<g id="edge4" class="edge">
<title>18&#45;&#45;29</title>
<path fill="none" stroke="black" d="M295.1,-422C304.76,-424.54 315.8,-427.44 325.49,-429.99"/>
</g>
<!-- 19&#45;&#45;20 -->
<g id="edge43" class="edge">
<title>19&#45;&#45;20</title>
<path fill="none" stroke="black" d="M280.08,-355.4C279.09,-344.71 277.85,-331.28 276.87,-320.64"/>
</g>
<!-- 19&#45;&#45;28 -->
<g id="edge7" class="edge">
<title>19&#45;&#45;28</title>
<path fill="none" stroke="black" d="M306.94,-366.48C312.64,-364.84 318.69,-363.1 324.39,-361.47"/>
</g>
<!-- 27 -->
<g id="node28" class="node">
<title>27</title>
<ellipse fill="none" stroke="black" cx="344.99" cy="-277.63" rx="27" ry="18"/>
<text text-anchor="middle" x="344.99" y="-273.93" font-family="Times New Roman,serif" font-size="14.00">27</text>
</g>
<!-- 20&#45;&#45;27 -->
<g id="edge15" class="edge">
<title>20&#45;&#45;27</title>
<path fill="none" stroke="black" d="M299.22,-294.04C306.32,-291.49 314.08,-288.71 321.17,-286.17"/>
</g>
<!-- 21&#45;&#45;22 -->
<g id="edge44" class="edge">
<title>21&#45;&#45;22</title>
<path fill="none" stroke="black" d="M283.04,-149.66C280.28,-136.52 276.57,-118.86 273.82,-105.74"/>
</g>
<!-- 26 -->
<g id="node27" class="node">
<title>26</title>
<ellipse fill="none" stroke="black" cx="365.33" cy="-203.27" rx="27" ry="18"/>
<text text-anchor="middle" x="365.33" y="-199.57" font-family="Times New Roman,serif" font-size="14.00">26</text>
</g>
<!-- 21&#45;&#45;26 -->
<g id="edge19" class="edge">
<title>21&#45;&#45;26</title>
<path fill="none" stroke="black" d="M309.56,-178.12C319.97,-182.81 332.28,-188.37 342.69,-193.06"/>
</g>
<!-- 22&#45;&#45;23 -->
<g id="edge45" class="edge">
<title>22&#45;&#45;23</title>
<path fill="none" stroke="black" d="M269.45,-69.31C269.14,-59.16 268.75,-46.57 268.44,-36.4"/>
</g>
<!-- 25 -->
<g id="node26" class="node">
<title>25</title>
<ellipse fill="none" stroke="black" cx="356.27" cy="-115.35" rx="27" ry="18"/>
<text text-anchor="middle" x="356.27" y="-111.65" font-family="Times New Roman,serif" font-size="14.00">25</text>
</g>
<!-- 22&#45;&#45;25 -->
<g id="edge27" class="edge">
<title>22&#45;&#45;25</title>
<path fill="none" stroke="black" d="M294.5,-95.47C306.15,-99.22 320.06,-103.7 331.72,-107.45"/>
</g>
<!-- 23&#45;&#45;24 -->
<g id="edge30" class="edge">
<title>23&#45;&#45;24</title>
<path fill="none" stroke="black" d="M294.22,-23.12C305.34,-25.27 318.25,-27.78 329.36,-29.94"/>
</g>
<!-- 24&#45;&#45;25 -->
<g id="edge46" class="edge">
<title>24&#45;&#45;25</title>
<path fill="none" stroke="black" d="M355.82,-53.27C355.92,-66.32 356.04,-83.83 356.14,-96.92"/>
</g>
<!-- 25&#45;&#45;26 -->
<g id="edge40" class="edge">
<title>25&#45;&#45;26</title>
<path fill="none" stroke="black" d="M358.15,-133.57C359.7,-148.66 361.9,-169.99 363.46,-185.08"/>
</g>
<!-- 25&#45;&#45;End -->
<g id="edge64" class="edge">
<title>25&#45;&#45;End</title>
<path fill="none" stroke="black" d="M383.24,-118.94C391.98,-120.11 401.67,-121.4 410.41,-122.57"/>
</g>
<!-- 26&#45;&#45;27 -->
<g id="edge41" class="edge">
<title>26&#45;&#45;27</title>
<path fill="none" stroke="black" d="M360.41,-221.27C357.23,-232.88 353.12,-247.91 349.94,-259.53"/>
</g>
<!-- 31 -->
<g id="node32" class="node">
<title>31</title>
<ellipse fill="none" stroke="black" cx="399.08" cy="-282.73" rx="27" ry="18"/>
<text text-anchor="middle" x="399.08" y="-279.03" font-family="Times New Roman,serif" font-size="14.00">31</text>
</g>
<!-- 26&#45;&#45;31 -->
<g id="edge61" class="edge">
<title>26&#45;&#45;31</title>
<path fill="none" stroke="black" d="M372.82,-220.91C378.41,-234.08 386.02,-251.99 391.61,-265.15"/>
</g>
<!-- 32 -->
<g id="node33" class="node">
<title>32</title>
<ellipse fill="none" stroke="black" cx="438.25" cy="-213.54" rx="27" ry="18"/>
<text text-anchor="middle" x="438.25" y="-209.84" font-family="Times New Roman,serif" font-size="14.00">32</text>
</g>
<!-- 26&#45;&#45;32 -->
<g id="edge18" class="edge">
<title>26&#45;&#45;32</title>
<path fill="none" stroke="black" d="M392.07,-207.04C398.41,-207.93 405.17,-208.88 411.51,-209.77"/>
</g>
<!-- 27&#45;&#45;28 -->
<g id="edge42" class="edge">
<title>27&#45;&#45;28</title>
<path fill="none" stroke="black" d="M346.02,-295.8C346.71,-307.93 347.61,-323.83 348.3,-336"/>
</g>
<!-- 27&#45;&#45;31 -->
<g id="edge16" class="edge">
<title>27&#45;&#45;31</title>
<path fill="none" stroke="black" d="M372.03,-280.18C372.14,-280.19 372.25,-280.2 372.35,-280.21"/>
</g>
<!-- 30 -->
<g id="node31" class="node">
<title>30</title>
<ellipse fill="none" stroke="black" cx="414.54" cy="-364.89" rx="27" ry="18"/>
<text text-anchor="middle" x="414.54" y="-361.19" font-family="Times New Roman,serif" font-size="14.00">30</text>
</g>
<!-- 28&#45;&#45;30 -->
<g id="edge6" class="edge">
<title>28&#45;&#45;30</title>
<path fill="none" stroke="black" d="M375.86,-358.61C379.81,-359.25 383.88,-359.91 387.83,-360.56"/>
</g>
<!-- 28&#45;&#45;31 -->
<g id="edge58" class="edge">
<title>28&#45;&#45;31</title>
<path fill="none" stroke="black" d="M360.88,-337.7C368.91,-326.14 379.58,-310.78 387.6,-299.24"/>
</g>
<!-- 29&#45;&#45;30 -->
<g id="edge5" class="edge">
<title>29&#45;&#45;30</title>
<path fill="none" stroke="black" d="M364.75,-421.11C375.42,-409.07 390.11,-392.48 400.77,-380.44"/>
</g>
<!-- 30&#45;&#45;31 -->
<g id="edge38" class="edge">
<title>30&#45;&#45;31</title>
<path fill="none" stroke="black" d="M411.11,-346.66C408.54,-333.04 405.06,-314.52 402.5,-300.92"/>
</g>
<!-- 31&#45;&#45;32 -->
<g id="edge17" class="edge">
<title>31&#45;&#45;32</title>
<path fill="none" stroke="black" d="M408.76,-265.63C414.83,-254.9 422.62,-241.13 428.67,-230.44"/>
</g>
<!-- 32&#45;&#45;End -->
<g id="edge39" class="edge">
<title>32&#45;&#45;End</title>
<path fill="none" stroke="black" d="M438.04,-195.43C437.87,-180.53 437.63,-159.51 437.46,-144.53"/>
</g>
</g>
</svg>
