<?xml version="1.0" encoding="UTF-8" standalone="no"?>
<!DOCTYPE svg PUBLIC "-//W3C//DTD SVG 1.1//EN"
 "http://www.w3.org/Graphics/SVG/1.1/DTD/svg11.dtd">
<!-- Generated by graphviz version 8.0.1 (20230327.1645)
 -->
<!-- Title: Some Unique Identifier Pages: 1 -->
<svg width="322pt" height="232pt"
 viewBox="0.00 0.00 322.06 232.14" xmlns="http://www.w3.org/2000/svg" xmlns:xlink="http://www.w3.org/1999/xlink">
<g id="graph0" class="graph" transform="scale(1 1) rotate(0) translate(4 228.14)">
<title>Some Unique Identifier</title>
<polygon fill="white" stroke="none" points="-4,4 -4,-228.14 318.06,-228.14 318.06,4 -4,4"/>
<!-- 0 -->
<g id="node1" class="node">
<title>0</title>
<ellipse fill="none" stroke="black" cx="118.28" cy="-23.56" rx="27" ry="18"/>
<text text-anchor="middle" x="118.28" y="-19.86" font-family="Times New Roman,serif" font-size="14.00">0</text>
</g>
<!-- 2 -->
<g id="node3" class="node">
<title>2</title>
<ellipse fill="none" stroke="black" cx="47.56" cy="-77.62" rx="27" ry="18"/>
<text text-anchor="middle" x="47.56" y="-73.92" font-family="Times New Roman,serif" font-size="14.00">2</text>
</g>
<!-- 0&#45;&#45;2 -->
<g id="edge1" class="edge">
<title>0&#45;&#45;2</title>
<path fill="none" stroke="black" d="M100.44,-37.2C89.8,-45.34 76.33,-55.63 65.65,-63.79"/>
</g>
<!-- 3 -->
<g id="node4" class="node">
<title>3</title>
<ellipse fill="none" stroke="black" cx="168.58" cy="-73.72" rx="27" ry="18"/>
<text text-anchor="middle" x="168.58" y="-70.02" font-family="Times New Roman,serif" font-size="14.00">3</text>
</g>
<!-- 0&#45;&#45;3 -->
<g id="edge8" class="edge">
<title>0&#45;&#45;3</title>
<path fill="none" stroke="black" d="M133.65,-38.88C139.89,-45.11 147.08,-52.28 153.31,-58.49"/>
</g>
<!-- 9 -->
<g id="node10" class="node">
<title>9</title>
<ellipse fill="none" stroke="black" cx="205.29" cy="-18" rx="27" ry="18"/>
<text text-anchor="middle" x="205.29" y="-14.3" font-family="Times New Roman,serif" font-size="14.00">9</text>
</g>
<!-- 0&#45;&#45;9 -->
<g id="edge10" class="edge">
<title>0&#45;&#45;9</title>
<path fill="none" stroke="black" d="M145.34,-21.83C155.71,-21.17 167.55,-20.41 177.96,-19.75"/>
</g>
<!-- 1 -->
<g id="node2" class="node">
<title>1</title>
<ellipse fill="none" stroke="black" cx="196.1" cy="-200.67" rx="27" ry="18"/>
<text text-anchor="middle" x="196.1" y="-196.97" font-family="Times New Roman,serif" font-size="14.00">1</text>
</g>
<!-- 5 -->
<g id="node6" class="node">
<title>5</title>
<ellipse fill="none" stroke="black" cx="145.87" cy="-150.14" rx="27" ry="18"/>
<text text-anchor="middle" x="145.87" y="-146.44" font-family="Times New Roman,serif" font-size="14.00">5</text>
</g>
<!-- 1&#45;&#45;5 -->
<g id="edge4" class="edge">
<title>1&#45;&#45;5</title>
<path fill="none" stroke="black" d="M181.03,-185.51C174.67,-179.11 167.29,-171.68 160.93,-165.29"/>
</g>
<!-- 6 -->
<g id="node7" class="node">
<title>6</title>
<ellipse fill="none" stroke="black" cx="266.63" cy="-146.85" rx="27" ry="18"/>
<text text-anchor="middle" x="266.63" y="-143.15" font-family="Times New Roman,serif" font-size="14.00">6</text>
</g>
<!-- 1&#45;&#45;6 -->
<g id="edge5" class="edge">
<title>1&#45;&#45;6</title>
<path fill="none" stroke="black" d="M214.26,-186.81C224.88,-178.71 238.22,-168.53 248.78,-160.48"/>
</g>
<!-- 8 -->
<g id="node9" class="node">
<title>8</title>
<ellipse fill="none" stroke="black" cx="109.45" cy="-206.14" rx="27" ry="18"/>
<text text-anchor="middle" x="109.45" y="-202.44" font-family="Times New Roman,serif" font-size="14.00">8</text>
</g>
<!-- 1&#45;&#45;8 -->
<g id="edge13" class="edge">
<title>1&#45;&#45;8</title>
<path fill="none" stroke="black" d="M169.16,-202.37C158.83,-203.02 147.03,-203.77 136.68,-204.42"/>
</g>
<!-- 4 -->
<g id="node5" class="node">
<title>4</title>
<ellipse fill="none" stroke="black" cx="73.21" cy="-145.78" rx="27" ry="18"/>
<text text-anchor="middle" x="73.21" y="-142.08" font-family="Times New Roman,serif" font-size="14.00">4</text>
</g>
<!-- 2&#45;&#45;4 -->
<g id="edge2" class="edge">
<title>2&#45;&#45;4</title>
<path fill="none" stroke="black" d="M54.3,-95.52C58.1,-105.62 62.83,-118.18 66.61,-128.22"/>
</g>
<!-- Start -->
<g id="node12" class="node">
<title>Start</title>
<ellipse fill="none" stroke="black" cx="27.95" cy="-165.86" rx="27.9" ry="18"/>
<text text-anchor="middle" x="27.95" y="-162.16" font-family="Times New Roman,serif" font-size="14.00">Start</text>
</g>
<!-- 2&#45;&#45;Start -->
<g id="edge21" class="edge">
<title>2&#45;&#45;Start</title>
<path fill="none" stroke="black" d="M43.5,-95.9C40.13,-111.04 35.37,-132.46 32.01,-147.6"/>
</g>
<!-- 3&#45;&#45;5 -->
<g id="edge9" class="edge">
<title>3&#45;&#45;5</title>
<path fill="none" stroke="black" d="M163.2,-91.83C159.58,-104.01 154.82,-120 151.21,-132.16"/>
</g>
<!-- 7 -->
<g id="node8" class="node">
<title>7</title>
<ellipse fill="none" stroke="black" cx="241.18" cy="-77.82" rx="27" ry="18"/>
<text text-anchor="middle" x="241.18" y="-74.12" font-family="Times New Roman,serif" font-size="14.00">7</text>
</g>
<!-- 3&#45;&#45;7 -->
<g id="edge7" class="edge">
<title>3&#45;&#45;7</title>
<path fill="none" stroke="black" d="M195.61,-75.24C201.58,-75.58 207.9,-75.94 213.88,-76.28"/>
</g>
<!-- 3&#45;&#45;9 -->
<g id="edge12" class="edge">
<title>3&#45;&#45;9</title>
<path fill="none" stroke="black" d="M179.59,-57C184.24,-49.95 189.64,-41.76 194.28,-34.7"/>
</g>
<!-- 4&#45;&#45;5 -->
<g id="edge3" class="edge">
<title>4&#45;&#45;5</title>
<path fill="none" stroke="black" d="M100.27,-147.4C106.24,-147.76 112.57,-148.14 118.55,-148.5"/>
</g>
<!-- 4&#45;&#45;8 -->
<g id="edge15" class="edge">
<title>4&#45;&#45;8</title>
<path fill="none" stroke="black" d="M83.5,-162.91C88.44,-171.14 94.34,-180.97 99.26,-189.17"/>
</g>
<!-- 4&#45;&#45;Start -->
<g id="edge19" class="edge">
<title>4&#45;&#45;Start</title>
<path fill="none" stroke="black" d="M50.31,-155.93C50.23,-155.97 50.14,-156.01 50.05,-156.05"/>
</g>
<!-- 5&#45;&#45;8 -->
<g id="edge14" class="edge">
<title>5&#45;&#45;8</title>
<path fill="none" stroke="black" d="M134.94,-166.94C130.33,-174.03 124.98,-182.26 120.37,-189.35"/>
</g>
<!-- 6&#45;&#45;7 -->
<g id="edge6" class="edge">
<title>6&#45;&#45;7</title>
<path fill="none" stroke="black" d="M260.08,-129.07C256.25,-118.69 251.43,-105.63 247.62,-95.3"/>
</g>
<!-- End -->
<g id="node11" class="node">
<title>End</title>
<ellipse fill="none" stroke="black" cx="287.06" cy="-59.62" rx="27" ry="18"/>
<text text-anchor="middle" x="287.06" y="-55.92" font-family="Times New Roman,serif" font-size="14.00">End</text>
</g>
<!-- 6&#45;&#45;End -->
<g id="edge16" class="edge">
<title>6&#45;&#45;End</title>
<path fill="none" stroke="black" d="M270.87,-128.78C274.37,-113.81 279.33,-92.64 282.84,-77.67"/>
</g>
<!-- 7&#45;&#45;9 -->
<g id="edge11" class="edge">
<title>7&#45;&#45;9</title>
<path fill="none" stroke="black" d="M230.99,-60.84C226.1,-52.69 220.26,-42.95 215.38,-34.82"/>
</g>
<!-- 7&#45;&#45;End -->
<g id="edge18" class="edge">
<title>7&#45;&#45;End</title>
<path fill="none" stroke="black" d="M264.66,-68.51C264.75,-68.47 264.83,-68.44 264.92,-68.4"/>
</g>
<!-- 8&#45;&#45;Start -->
<g id="edge20" class="edge">
<title>8&#45;&#45;Start</title>
<path fill="none" stroke="black" d="M87.61,-195.35C76.11,-189.66 62.02,-182.7 50.42,-176.96"/>
</g>
<!-- 9&#45;&#45;End -->
<g id="edge17" class="edge">
<title>9&#45;&#45;End</title>
<path fill="none" stroke="black" d="M227.21,-29.15C239.03,-35.17 253.58,-42.58 265.37,-48.58"/>
</g>
</g>
</svg>
