<?xml version="1.0" encoding="UTF-8" standalone="no"?>
<!DOCTYPE svg PUBLIC "-//W3C//DTD SVG 1.1//EN"
 "http://www.w3.org/Graphics/SVG/1.1/DTD/svg11.dtd">
<!-- Generated by graphviz version 8.0.1 (20230327.1645)
 -->
<!-- Title: Some Unique Identifier Pages: 1 -->
<svg width="300pt" height="210pt"
 viewBox="0.00 0.00 299.87 210.04" xmlns="http://www.w3.org/2000/svg" xmlns:xlink="http://www.w3.org/1999/xlink">
<g id="graph0" class="graph" transform="scale(1 1) rotate(0) translate(4 206.04)">
<title>Some Unique Identifier</title>
<polygon fill="white" stroke="none" points="-4,4 -4,-206.04 295.87,-206.04 295.87,4 -4,4"/>
<!-- Start -->
<g id="node1" class="node">
<title>Start</title>
<ellipse fill="none" stroke="black" cx="27.95" cy="-99.3" rx="27.9" ry="18"/>
<text text-anchor="middle" x="27.95" y="-95.6" font-family="Times New Roman,serif" font-size="14.00">Start</text>
</g>
<!-- B -->
<g id="node2" class="node">
<title>B</title>
<ellipse fill="none" stroke="black" cx="45.6" cy="-172.91" rx="27" ry="18"/>
<text text-anchor="middle" x="45.6" y="-169.21" font-family="Times New Roman,serif" font-size="14.00">B</text>
</g>
<!-- Start&#45;&#45;B -->
<g id="edge1" class="edge">
<title>Start&#45;&#45;B</title>
<path fill="none" stroke="black" d="M32.31,-117.49C35.03,-128.82 38.51,-143.33 41.23,-154.67"/>
</g>
<!-- C -->
<g id="node3" class="node">
<title>C</title>
<ellipse fill="none" stroke="black" cx="123.43" cy="-157.93" rx="27" ry="18"/>
<text text-anchor="middle" x="123.43" y="-154.23" font-family="Times New Roman,serif" font-size="14.00">C</text>
</g>
<!-- B&#45;&#45;C -->
<g id="edge2" class="edge">
<title>B&#45;&#45;C</title>
<path fill="none" stroke="black" d="M71.95,-167.84C80.07,-166.28 89,-164.56 97.11,-163"/>
</g>
<!-- D -->
<g id="node4" class="node">
<title>D</title>
<ellipse fill="none" stroke="black" cx="184.06" cy="-100.5" rx="27" ry="18"/>
<text text-anchor="middle" x="184.06" y="-96.8" font-family="Times New Roman,serif" font-size="14.00">D</text>
</g>
<!-- C&#45;&#45;D -->
<g id="edge3" class="edge">
<title>C&#45;&#45;D</title>
<path fill="none" stroke="black" d="M139.05,-143.14C148.03,-134.64 159.28,-123.97 168.29,-115.44"/>
</g>
<!-- E -->
<g id="node5" class="node">
<title>E</title>
<ellipse fill="none" stroke="black" cx="252.97" cy="-148.69" rx="27" ry="18"/>
<text text-anchor="middle" x="252.97" y="-144.99" font-family="Times New Roman,serif" font-size="14.00">E</text>
</g>
<!-- D&#45;&#45;E -->
<g id="edge4" class="edge">
<title>D&#45;&#45;E</title>
<path fill="none" stroke="black" d="M202.89,-113.67C212.61,-120.47 224.44,-128.74 234.16,-135.54"/>
</g>
<!-- End -->
<g id="node6" class="node">
<title>End</title>
<ellipse fill="none" stroke="black" cx="200.44" cy="-184.04" rx="27" ry="18"/>
<text text-anchor="middle" x="200.44" y="-180.34" font-family="Times New Roman,serif" font-size="14.00">End</text>
</g>
<!-- D&#45;&#45;End -->
<g id="edge5" class="edge">
<title>D&#45;&#45;End</title>
<path fill="none" stroke="black" d="M187.61,-118.63C190.36,-132.64 194.15,-151.95 196.89,-165.95"/>
</g>
<!-- G -->
<g id="node7" class="node">
<title>G</title>
<ellipse fill="none" stroke="black" cx="264.87" cy="-83.18" rx="27" ry="18"/>
<text text-anchor="middle" x="264.87" y="-79.48" font-family="Times New Roman,serif" font-size="14.00">G</text>
</g>
<!-- D&#45;&#45;G -->
<g id="edge6" class="edge">
<title>D&#45;&#45;G</title>
<path fill="none" stroke="black" d="M210.07,-94.93C219.3,-92.95 229.68,-90.72 238.9,-88.75"/>
</g>
<!-- H -->
<g id="node8" class="node">
<title>H</title>
<ellipse fill="none" stroke="black" cx="226.65" cy="-28.33" rx="27" ry="18"/>
<text text-anchor="middle" x="226.65" y="-24.63" font-family="Times New Roman,serif" font-size="14.00">H</text>
</g>
<!-- D&#45;&#45;H -->
<g id="edge7" class="edge">
<title>D&#45;&#45;H</title>
<path fill="none" stroke="black" d="M194.15,-83.4C200.94,-71.89 209.86,-56.79 216.63,-45.31"/>
</g>
<!-- I -->
<g id="node9" class="node">
<title>I</title>
<ellipse fill="none" stroke="black" cx="103.87" cy="-74.67" rx="27" ry="18"/>
<text text-anchor="middle" x="103.87" y="-70.97" font-family="Times New Roman,serif" font-size="14.00">I</text>
</g>
<!-- D&#45;&#45;I -->
<g id="edge8" class="edge">
<title>D&#45;&#45;I</title>
<path fill="none" stroke="black" d="M159.56,-92.61C149.71,-89.44 138.36,-85.78 128.49,-82.6"/>
</g>
<!-- J -->
<g id="node10" class="node">
<title>J</title>
<ellipse fill="none" stroke="black" cx="163.57" cy="-18" rx="27" ry="18"/>
<text text-anchor="middle" x="163.57" y="-14.3" font-family="Times New Roman,serif" font-size="14.00">J</text>
</g>
<!-- D&#45;&#45;J -->
<g id="edge9" class="edge">
<title>D&#45;&#45;J</title>
<path fill="none" stroke="black" d="M179.61,-82.6C176.2,-68.86 171.5,-49.96 168.07,-36.15"/>
</g>
<!-- I&#45;&#45;Start -->
<g id="edge10" class="edge">
<title>I&#45;&#45;Start</title>
<path fill="none" stroke="black" d="M79.43,-82.6C71.02,-85.33 61.59,-88.39 53.12,-91.13"/>
</g>
</g>
</svg>
