<?xml version="1.0" encoding="UTF-8" standalone="no"?>
<!DOCTYPE svg PUBLIC "-//W3C//DTD SVG 1.1//EN"
 "http://www.w3.org/Graphics/SVG/1.1/DTD/svg11.dtd">
<!-- Generated by graphviz version 8.0.1 (20230327.1645)
 -->
<!-- Title: prob29 Pages: 1 -->
<svg width="561pt" height="501pt"
 viewBox="0.00 0.00 560.82 500.58" xmlns="http://www.w3.org/2000/svg" xmlns:xlink="http://www.w3.org/1999/xlink">
<g id="graph0" class="graph" transform="scale(1 1) rotate(0) translate(4 496.58)">
<title>prob29</title>
<polygon fill="white" stroke="none" points="-4,4 -4,-496.58 556.82,-496.58 556.82,4 -4,4"/>
<!-- Start -->
<g id="node1" class="node">
<title>Start</title>
<ellipse fill="none" stroke="black" cx="51.71" cy="-249.1" rx="27.9" ry="18"/>
<text text-anchor="middle" x="51.71" y="-245.4" font-family="Times New Roman,serif" font-size="14.00">Start</text>
</g>
<!-- 11 -->
<g id="node12" class="node">
<title>11</title>
<ellipse fill="none" stroke="black" cx="29.84" cy="-168.32" rx="27" ry="18"/>
<text text-anchor="middle" x="29.84" y="-164.62" font-family="Times New Roman,serif" font-size="14.00">11</text>
</g>
<!-- Start&#45;&#45;11 -->
<g id="edge7" class="edge">
<title>Start&#45;&#45;11</title>
<path fill="none" stroke="black" d="M46.86,-231.17C43.26,-217.88 38.37,-199.82 34.75,-186.47"/>
</g>
<!-- 12 -->
<g id="node13" class="node">
<title>12</title>
<ellipse fill="none" stroke="black" cx="94.9" cy="-165.66" rx="27" ry="18"/>
<text text-anchor="middle" x="94.9" y="-161.96" font-family="Times New Roman,serif" font-size="14.00">12</text>
</g>
<!-- Start&#45;&#45;12 -->
<g id="edge6" class="edge">
<title>Start&#45;&#45;12</title>
<path fill="none" stroke="black" d="M60.66,-231.81C68.07,-217.49 78.55,-197.24 85.96,-182.93"/>
</g>
<!-- 13 -->
<g id="node14" class="node">
<title>13</title>
<ellipse fill="none" stroke="black" cx="106.16" cy="-224.97" rx="27" ry="18"/>
<text text-anchor="middle" x="106.16" y="-221.27" font-family="Times New Roman,serif" font-size="14.00">13</text>
</g>
<!-- Start&#45;&#45;13 -->
<g id="edge4" class="edge">
<title>Start&#45;&#45;13</title>
<path fill="none" stroke="black" d="M75.12,-238.73C77.89,-237.5 80.71,-236.25 83.46,-235.03"/>
</g>
<!-- 14 -->
<g id="node15" class="node">
<title>14</title>
<ellipse fill="none" stroke="black" cx="87.54" cy="-316.38" rx="27" ry="18"/>
<text text-anchor="middle" x="87.54" y="-312.68" font-family="Times New Roman,serif" font-size="14.00">14</text>
</g>
<!-- Start&#45;&#45;14 -->
<g id="edge3" class="edge">
<title>Start&#45;&#45;14</title>
<path fill="none" stroke="black" d="M60.94,-266.43C66.33,-276.55 73.1,-289.28 78.47,-299.35"/>
</g>
<!-- 15 -->
<g id="node16" class="node">
<title>15</title>
<ellipse fill="none" stroke="black" cx="43.29" cy="-346.58" rx="27" ry="18"/>
<text text-anchor="middle" x="43.29" y="-342.88" font-family="Times New Roman,serif" font-size="14.00">15</text>
</g>
<!-- Start&#45;&#45;15 -->
<g id="edge1" class="edge">
<title>Start&#45;&#45;15</title>
<path fill="none" stroke="black" d="M50.13,-267.44C48.62,-284.86 46.37,-310.93 44.86,-328.33"/>
</g>
<!-- End -->
<g id="node2" class="node">
<title>End</title>
<ellipse fill="none" stroke="black" cx="516.78" cy="-272.13" rx="27" ry="18"/>
<text text-anchor="middle" x="516.78" y="-268.43" font-family="Times New Roman,serif" font-size="14.00">End</text>
</g>
<!-- 8 -->
<g id="node9" class="node">
<title>8</title>
<ellipse fill="none" stroke="black" cx="493.22" cy="-181.17" rx="27" ry="18"/>
<text text-anchor="middle" x="493.22" y="-177.47" font-family="Times New Roman,serif" font-size="14.00">8</text>
</g>
<!-- End&#45;&#45;8 -->
<g id="edge15" class="edge">
<title>End&#45;&#45;8</title>
<path fill="none" stroke="black" d="M512.12,-254.15C507.99,-238.21 501.99,-215.03 497.86,-199.1"/>
</g>
<!-- 9 -->
<g id="node10" class="node">
<title>9</title>
<ellipse fill="none" stroke="black" cx="459.7" cy="-270.96" rx="27" ry="18"/>
<text text-anchor="middle" x="459.7" y="-267.26" font-family="Times New Roman,serif" font-size="14.00">9</text>
</g>
<!-- End&#45;&#45;9 -->
<g id="edge16" class="edge">
<title>End&#45;&#45;9</title>
<path fill="none" stroke="black" d="M489.58,-271.57C488.77,-271.55 487.97,-271.54 487.16,-271.52"/>
</g>
<!-- 10 -->
<g id="node11" class="node">
<title>10</title>
<ellipse fill="none" stroke="black" cx="448.01" cy="-327.09" rx="27" ry="18"/>
<text text-anchor="middle" x="448.01" y="-323.39" font-family="Times New Roman,serif" font-size="14.00">10</text>
</g>
<!-- End&#45;&#45;10 -->
<g id="edge18" class="edge">
<title>End&#45;&#45;10</title>
<path fill="none" stroke="black" d="M499.43,-286C489.08,-294.27 475.99,-304.73 465.6,-313.04"/>
</g>
<!-- 16 -->
<g id="node17" class="node">
<title>16</title>
<ellipse fill="none" stroke="black" cx="516.52" cy="-371.33" rx="27" ry="18"/>
<text text-anchor="middle" x="516.52" y="-367.63" font-family="Times New Roman,serif" font-size="14.00">16</text>
</g>
<!-- End&#45;&#45;16 -->
<g id="edge19" class="edge">
<title>End&#45;&#45;16</title>
<path fill="none" stroke="black" d="M516.73,-290.32C516.68,-308.11 516.61,-335.05 516.57,-352.91"/>
</g>
<!-- 45 -->
<g id="node46" class="node">
<title>45</title>
<ellipse fill="none" stroke="black" cx="525.82" cy="-171.56" rx="27" ry="18"/>
<text text-anchor="middle" x="525.82" y="-167.86" font-family="Times New Roman,serif" font-size="14.00">45</text>
</g>
<!-- End&#45;&#45;45 -->
<g id="edge78" class="edge">
<title>End&#45;&#45;45</title>
<path fill="none" stroke="black" d="M518.44,-253.68C520.07,-235.53 522.54,-207.99 524.17,-189.89"/>
</g>
<!-- 2 -->
<g id="node3" class="node">
<title>2</title>
<ellipse fill="none" stroke="black" cx="27" cy="-110.71" rx="27" ry="18"/>
<text text-anchor="middle" x="27" y="-107.01" font-family="Times New Roman,serif" font-size="14.00">2</text>
</g>
<!-- 2&#45;&#45;11 -->
<g id="edge9" class="edge">
<title>2&#45;&#45;11</title>
<path fill="none" stroke="black" d="M27.9,-128.93C28.23,-135.66 28.6,-143.28 28.94,-150.01"/>
</g>
<!-- 2&#45;&#45;12 -->
<g id="edge47" class="edge">
<title>2&#45;&#45;12</title>
<path fill="none" stroke="black" d="M44.49,-124.86C54.7,-133.13 67.54,-143.52 77.71,-151.75"/>
</g>
<!-- 40 -->
<g id="node41" class="node">
<title>40</title>
<ellipse fill="none" stroke="black" cx="74.91" cy="-78.9" rx="27" ry="18"/>
<text text-anchor="middle" x="74.91" y="-75.2" font-family="Times New Roman,serif" font-size="14.00">40</text>
</g>
<!-- 2&#45;&#45;40 -->
<g id="edge76" class="edge">
<title>2&#45;&#45;40</title>
<path fill="none" stroke="black" d="M46.49,-97.77C49.49,-95.78 52.59,-93.72 55.6,-91.72"/>
</g>
<!-- 3 -->
<g id="node4" class="node">
<title>3</title>
<ellipse fill="none" stroke="black" cx="234.02" cy="-71.28" rx="27" ry="18"/>
<text text-anchor="middle" x="234.02" y="-67.58" font-family="Times New Roman,serif" font-size="14.00">3</text>
</g>
<!-- 4 -->
<g id="node5" class="node">
<title>4</title>
<ellipse fill="none" stroke="black" cx="279.4" cy="-38.07" rx="27" ry="18"/>
<text text-anchor="middle" x="279.4" y="-34.37" font-family="Times New Roman,serif" font-size="14.00">4</text>
</g>
<!-- 3&#45;&#45;4 -->
<g id="edge10" class="edge">
<title>3&#45;&#45;4</title>
<path fill="none" stroke="black" d="M252.48,-57.77C255.22,-55.76 258.06,-53.69 260.81,-51.67"/>
</g>
<!-- 5 -->
<g id="node6" class="node">
<title>5</title>
<ellipse fill="none" stroke="black" cx="341.68" cy="-65.87" rx="27" ry="18"/>
<text text-anchor="middle" x="341.68" y="-62.17" font-family="Times New Roman,serif" font-size="14.00">5</text>
</g>
<!-- 3&#45;&#45;5 -->
<g id="edge50" class="edge">
<title>3&#45;&#45;5</title>
<path fill="none" stroke="black" d="M261.19,-69.92C277.51,-69.1 298.2,-68.06 314.52,-67.24"/>
</g>
<!-- 25 -->
<g id="node26" class="node">
<title>25</title>
<ellipse fill="none" stroke="black" cx="181.8" cy="-141.78" rx="27" ry="18"/>
<text text-anchor="middle" x="181.8" y="-138.08" font-family="Times New Roman,serif" font-size="14.00">25</text>
</g>
<!-- 3&#45;&#45;25 -->
<g id="edge46" class="edge">
<title>3&#45;&#45;25</title>
<path fill="none" stroke="black" d="M221.91,-87.63C213.47,-99.02 202.27,-114.15 193.85,-125.51"/>
</g>
<!-- 43 -->
<g id="node44" class="node">
<title>43</title>
<ellipse fill="none" stroke="black" cx="158.19" cy="-68.24" rx="27" ry="18"/>
<text text-anchor="middle" x="158.19" y="-64.54" font-family="Times New Roman,serif" font-size="14.00">43</text>
</g>
<!-- 3&#45;&#45;43 -->
<g id="edge73" class="edge">
<title>3&#45;&#45;43</title>
<path fill="none" stroke="black" d="M206.64,-70.18C199.77,-69.91 192.4,-69.61 185.53,-69.34"/>
</g>
<!-- 4&#45;&#45;5 -->
<g id="edge11" class="edge">
<title>4&#45;&#45;5</title>
<path fill="none" stroke="black" d="M302.24,-48.26C307.65,-50.68 313.43,-53.26 318.84,-55.68"/>
</g>
<!-- 26 -->
<g id="node27" class="node">
<title>26</title>
<ellipse fill="none" stroke="black" cx="257.15" cy="-122.19" rx="27" ry="18"/>
<text text-anchor="middle" x="257.15" y="-118.49" font-family="Times New Roman,serif" font-size="14.00">26</text>
</g>
<!-- 4&#45;&#45;26 -->
<g id="edge69" class="edge">
<title>4&#45;&#45;26</title>
<path fill="none" stroke="black" d="M274.68,-55.91C270.93,-70.09 265.71,-89.84 261.94,-104.09"/>
</g>
<!-- 6 -->
<g id="node7" class="node">
<title>6</title>
<ellipse fill="none" stroke="black" cx="420.31" cy="-40.91" rx="27" ry="18"/>
<text text-anchor="middle" x="420.31" y="-37.21" font-family="Times New Roman,serif" font-size="14.00">6</text>
</g>
<!-- 5&#45;&#45;6 -->
<g id="edge12" class="edge">
<title>5&#45;&#45;6</title>
<path fill="none" stroke="black" d="M366.13,-58.11C375.5,-55.13 386.21,-51.74 395.61,-48.75"/>
</g>
<!-- 7 -->
<g id="node8" class="node">
<title>7</title>
<ellipse fill="none" stroke="black" cx="453.73" cy="-98.38" rx="27" ry="18"/>
<text text-anchor="middle" x="453.73" y="-94.68" font-family="Times New Roman,serif" font-size="14.00">7</text>
</g>
<!-- 5&#45;&#45;7 -->
<g id="edge51" class="edge">
<title>5&#45;&#45;7</title>
<path fill="none" stroke="black" d="M366.83,-73.17C385.28,-78.52 410.24,-85.76 428.67,-91.11"/>
</g>
<!-- 32 -->
<g id="node33" class="node">
<title>32</title>
<ellipse fill="none" stroke="black" cx="343.96" cy="-115.55" rx="27" ry="18"/>
<text text-anchor="middle" x="343.96" y="-111.85" font-family="Times New Roman,serif" font-size="14.00">32</text>
</g>
<!-- 5&#45;&#45;32 -->
<g id="edge45" class="edge">
<title>5&#45;&#45;32</title>
<path fill="none" stroke="black" d="M342.52,-84.09C342.71,-88.41 342.93,-93.01 343.12,-97.33"/>
</g>
<!-- 6&#45;&#45;7 -->
<g id="edge84" class="edge">
<title>6&#45;&#45;7</title>
<path fill="none" stroke="black" d="M430.16,-57.84C434.47,-65.26 439.52,-73.94 443.84,-81.37"/>
</g>
<!-- 33 -->
<g id="node34" class="node">
<title>33</title>
<ellipse fill="none" stroke="black" cx="420.42" cy="-109.33" rx="27" ry="18"/>
<text text-anchor="middle" x="420.42" y="-105.63" font-family="Times New Roman,serif" font-size="14.00">33</text>
</g>
<!-- 6&#45;&#45;33 -->
<g id="edge77" class="edge">
<title>6&#45;&#45;33</title>
<path fill="none" stroke="black" d="M420.34,-59.25C420.36,-69.06 420.37,-81.12 420.39,-90.95"/>
</g>
<!-- 44 -->
<g id="node45" class="node">
<title>44</title>
<ellipse fill="none" stroke="black" cx="371.19" cy="-18" rx="27" ry="18"/>
<text text-anchor="middle" x="371.19" y="-14.3" font-family="Times New Roman,serif" font-size="14.00">44</text>
</g>
<!-- 6&#45;&#45;44 -->
<g id="edge89" class="edge">
<title>6&#45;&#45;44</title>
<path fill="none" stroke="black" d="M397.76,-30.39C396.35,-29.74 394.93,-29.07 393.52,-28.41"/>
</g>
<!-- 7&#45;&#45;8 -->
<g id="edge14" class="edge">
<title>7&#45;&#45;8</title>
<path fill="none" stroke="black" d="M462.11,-115.93C468.81,-129.98 478.16,-149.59 484.86,-163.63"/>
</g>
<!-- 7&#45;&#45;45 -->
<g id="edge80" class="edge">
<title>7&#45;&#45;45</title>
<path fill="none" stroke="black" d="M468.67,-113.54C480.96,-126.02 498.3,-143.62 510.65,-156.16"/>
</g>
<!-- 36 -->
<g id="node37" class="node">
<title>36</title>
<ellipse fill="none" stroke="black" cx="443.07" cy="-190.95" rx="27" ry="18"/>
<text text-anchor="middle" x="443.07" y="-187.25" font-family="Times New Roman,serif" font-size="14.00">36</text>
</g>
<!-- 8&#45;&#45;36 -->
<g id="edge52" class="edge">
<title>8&#45;&#45;36</title>
<path fill="none" stroke="black" d="M466.97,-186.28C466.88,-186.3 466.78,-186.32 466.69,-186.34"/>
</g>
<!-- 8&#45;&#45;45 -->
<g id="edge79" class="edge">
<title>8&#45;&#45;45</title>
<path fill="none" stroke="black" d="M518.26,-173.79C518.39,-173.75 518.53,-173.71 518.66,-173.67"/>
</g>
<!-- 9&#45;&#45;10 -->
<g id="edge17" class="edge">
<title>9&#45;&#45;10</title>
<path fill="none" stroke="black" d="M455.94,-289.03C454.6,-295.44 453.1,-302.65 451.77,-309.06"/>
</g>
<!-- 34 -->
<g id="node35" class="node">
<title>34</title>
<ellipse fill="none" stroke="black" cx="382.1" cy="-285.88" rx="27" ry="18"/>
<text text-anchor="middle" x="382.1" y="-282.18" font-family="Times New Roman,serif" font-size="14.00">34</text>
</g>
<!-- 9&#45;&#45;34 -->
<g id="edge55" class="edge">
<title>9&#45;&#45;34</title>
<path fill="none" stroke="black" d="M433.43,-276.01C425.34,-277.57 416.43,-279.28 408.34,-280.83"/>
</g>
<!-- 9&#45;&#45;36 -->
<g id="edge22" class="edge">
<title>9&#45;&#45;36</title>
<path fill="none" stroke="black" d="M455.93,-252.8C453.2,-239.71 449.55,-222.11 446.83,-209.03"/>
</g>
<!-- 17 -->
<g id="node18" class="node">
<title>17</title>
<ellipse fill="none" stroke="black" cx="444.91" cy="-405.95" rx="27" ry="18"/>
<text text-anchor="middle" x="444.91" y="-402.25" font-family="Times New Roman,serif" font-size="14.00">17</text>
</g>
<!-- 10&#45;&#45;17 -->
<g id="edge21" class="edge">
<title>10&#45;&#45;17</title>
<path fill="none" stroke="black" d="M447.29,-345.38C446.79,-358.03 446.13,-374.8 445.63,-387.49"/>
</g>
<!-- 10&#45;&#45;34 -->
<g id="edge39" class="edge">
<title>10&#45;&#45;34</title>
<path fill="none" stroke="black" d="M427.88,-314.5C419.7,-309.39 410.28,-303.5 402.11,-298.39"/>
</g>
<!-- 35 -->
<g id="node36" class="node">
<title>35</title>
<ellipse fill="none" stroke="black" cx="373.3" cy="-372.97" rx="27" ry="18"/>
<text text-anchor="middle" x="373.3" y="-369.27" font-family="Times New Roman,serif" font-size="14.00">35</text>
</g>
<!-- 10&#45;&#45;35 -->
<g id="edge86" class="edge">
<title>10&#45;&#45;35</title>
<path fill="none" stroke="black" d="M427.99,-339.39C417.27,-345.97 404.11,-354.05 393.38,-360.64"/>
</g>
<!-- 11&#45;&#45;12 -->
<g id="edge8" class="edge">
<title>11&#45;&#45;12</title>
<path fill="none" stroke="black" d="M57.05,-167.21C60.53,-167.06 64.1,-166.92 67.58,-166.78"/>
</g>
<!-- 11&#45;&#45;40 -->
<g id="edge75" class="edge">
<title>11&#45;&#45;40</title>
<path fill="none" stroke="black" d="M38.53,-151.08C46.46,-135.35 58.12,-112.21 66.09,-96.4"/>
</g>
<!-- 12&#45;&#45;13 -->
<g id="edge5" class="edge">
<title>12&#45;&#45;13</title>
<path fill="none" stroke="black" d="M98.34,-183.78C99.74,-191.13 101.35,-199.62 102.74,-206.96"/>
</g>
<!-- 12&#45;&#45;25 -->
<g id="edge48" class="edge">
<title>12&#45;&#45;25</title>
<path fill="none" stroke="black" d="M120.03,-158.75C131.46,-155.61 144.96,-151.9 156.42,-148.75"/>
</g>
<!-- 24 -->
<g id="node25" class="node">
<title>24</title>
<ellipse fill="none" stroke="black" cx="186.97" cy="-230.95" rx="27" ry="18"/>
<text text-anchor="middle" x="186.97" y="-227.25" font-family="Times New Roman,serif" font-size="14.00">24</text>
</g>
<!-- 13&#45;&#45;24 -->
<g id="edge35" class="edge">
<title>13&#45;&#45;24</title>
<path fill="none" stroke="black" d="M133.07,-226.96C141.7,-227.6 151.26,-228.31 159.9,-228.95"/>
</g>
<!-- 14&#45;&#45;15 -->
<g id="edge2" class="edge">
<title>14&#45;&#45;15</title>
<path fill="none" stroke="black" d="M68.26,-329.54C66.3,-330.88 64.31,-332.23 62.36,-333.57"/>
</g>
<!-- 23 -->
<g id="node24" class="node">
<title>23</title>
<ellipse fill="none" stroke="black" cx="156.97" cy="-369.02" rx="27" ry="18"/>
<text text-anchor="middle" x="156.97" y="-365.32" font-family="Times New Roman,serif" font-size="14.00">23</text>
</g>
<!-- 14&#45;&#45;23 -->
<g id="edge63" class="edge">
<title>14&#45;&#45;23</title>
<path fill="none" stroke="black" d="M105.78,-330.21C116.07,-338.01 128.86,-347.71 139.09,-355.46"/>
</g>
<!-- 39 -->
<g id="node40" class="node">
<title>39</title>
<ellipse fill="none" stroke="black" cx="157.39" cy="-291.2" rx="27" ry="18"/>
<text text-anchor="middle" x="157.39" y="-287.5" font-family="Times New Roman,serif" font-size="14.00">39</text>
</g>
<!-- 14&#45;&#45;39 -->
<g id="edge64" class="edge">
<title>14&#45;&#45;39</title>
<path fill="none" stroke="black" d="M111.58,-307.72C118.68,-305.16 126.45,-302.36 133.54,-299.8"/>
</g>
<!-- 22 -->
<g id="node23" class="node">
<title>22</title>
<ellipse fill="none" stroke="black" cx="97.65" cy="-417.97" rx="27" ry="18"/>
<text text-anchor="middle" x="97.65" y="-414.27" font-family="Times New Roman,serif" font-size="14.00">22</text>
</g>
<!-- 15&#45;&#45;22 -->
<g id="edge29" class="edge">
<title>15&#45;&#45;22</title>
<path fill="none" stroke="black" d="M55.62,-362.78C64.52,-374.46 76.48,-390.17 85.37,-401.83"/>
</g>
<!-- 42 -->
<g id="node43" class="node">
<title>42</title>
<ellipse fill="none" stroke="black" cx="76.7" cy="-439.17" rx="27" ry="18"/>
<text text-anchor="middle" x="76.7" y="-435.47" font-family="Times New Roman,serif" font-size="14.00">42</text>
</g>
<!-- 15&#45;&#45;42 -->
<g id="edge60" class="edge">
<title>15&#45;&#45;42</title>
<path fill="none" stroke="black" d="M49.73,-364.44C55.65,-380.83 64.37,-405 70.28,-421.38"/>
</g>
<!-- 16&#45;&#45;17 -->
<g id="edge20" class="edge">
<title>16&#45;&#45;17</title>
<path fill="none" stroke="black" d="M494.25,-382.1C485.55,-386.3 475.59,-391.12 466.91,-395.31"/>
</g>
<!-- 37 -->
<g id="node38" class="node">
<title>37</title>
<ellipse fill="none" stroke="black" cx="450.75" cy="-451.68" rx="27" ry="18"/>
<text text-anchor="middle" x="450.75" y="-447.98" font-family="Times New Roman,serif" font-size="14.00">37</text>
</g>
<!-- 16&#45;&#45;37 -->
<g id="edge53" class="edge">
<title>16&#45;&#45;37</title>
<path fill="none" stroke="black" d="M503.53,-387.2C492.07,-401.2 475.46,-421.49 463.94,-435.56"/>
</g>
<!-- 18 -->
<g id="node19" class="node">
<title>18</title>
<ellipse fill="none" stroke="black" cx="363.26" cy="-452.32" rx="27" ry="18"/>
<text text-anchor="middle" x="363.26" y="-448.62" font-family="Times New Roman,serif" font-size="14.00">18</text>
</g>
<!-- 17&#45;&#45;18 -->
<g id="edge24" class="edge">
<title>17&#45;&#45;18</title>
<path fill="none" stroke="black" d="M424.3,-417.66C412.02,-424.63 396.47,-433.46 384.14,-440.47"/>
</g>
<!-- 17&#45;&#45;37 -->
<g id="edge85" class="edge">
<title>17&#45;&#45;37</title>
<path fill="none" stroke="black" d="M447.25,-424.29C447.63,-427.27 448.03,-430.36 448.41,-433.34"/>
</g>
<!-- 19 -->
<g id="node20" class="node">
<title>19</title>
<ellipse fill="none" stroke="black" cx="301.9" cy="-417.3" rx="27" ry="18"/>
<text text-anchor="middle" x="301.9" y="-413.6" font-family="Times New Roman,serif" font-size="14.00">19</text>
</g>
<!-- 18&#45;&#45;19 -->
<g id="edge25" class="edge">
<title>18&#45;&#45;19</title>
<path fill="none" stroke="black" d="M342.48,-440.47C336.09,-436.81 329.05,-432.8 322.65,-429.14"/>
</g>
<!-- 18&#45;&#45;35 -->
<g id="edge31" class="edge">
<title>18&#45;&#45;35</title>
<path fill="none" stroke="black" d="M365.59,-433.92C367.21,-421.1 369.36,-404.07 370.98,-391.27"/>
</g>
<!-- 18&#45;&#45;37 -->
<g id="edge54" class="edge">
<title>18&#45;&#45;37</title>
<path fill="none" stroke="black" d="M390.46,-452.12C400.89,-452.05 412.8,-451.96 423.26,-451.88"/>
</g>
<!-- 41 -->
<g id="node42" class="node">
<title>41</title>
<ellipse fill="none" stroke="black" cx="270.72" cy="-474.58" rx="27" ry="18"/>
<text text-anchor="middle" x="270.72" y="-470.88" font-family="Times New Roman,serif" font-size="14.00">41</text>
</g>
<!-- 18&#45;&#45;41 -->
<g id="edge58" class="edge">
<title>18&#45;&#45;41</title>
<path fill="none" stroke="black" d="M337.48,-458.52C324.65,-461.61 309.17,-465.33 296.36,-468.42"/>
</g>
<!-- 20 -->
<g id="node21" class="node">
<title>20</title>
<ellipse fill="none" stroke="black" cx="223.71" cy="-405.97" rx="27" ry="18"/>
<text text-anchor="middle" x="223.71" y="-402.27" font-family="Times New Roman,serif" font-size="14.00">20</text>
</g>
<!-- 19&#45;&#45;20 -->
<g id="edge26" class="edge">
<title>19&#45;&#45;20</title>
<path fill="none" stroke="black" d="M275.43,-413.46C267.37,-412.3 258.5,-411.01 250.42,-409.84"/>
</g>
<!-- 30 -->
<g id="node31" class="node">
<title>30</title>
<ellipse fill="none" stroke="black" cx="306.09" cy="-330.9" rx="27" ry="18"/>
<text text-anchor="middle" x="306.09" y="-327.2" font-family="Times New Roman,serif" font-size="14.00">30</text>
</g>
<!-- 19&#45;&#45;30 -->
<g id="edge30" class="edge">
<title>19&#45;&#45;30</title>
<path fill="none" stroke="black" d="M302.79,-398.97C303.5,-384.31 304.49,-363.85 305.2,-349.19"/>
</g>
<!-- 19&#45;&#45;41 -->
<g id="edge57" class="edge">
<title>19&#45;&#45;41</title>
<path fill="none" stroke="black" d="M292.54,-434.49C288.6,-441.74 284.01,-450.16 280.07,-457.41"/>
</g>
<!-- 21 -->
<g id="node22" class="node">
<title>21</title>
<ellipse fill="none" stroke="black" cx="171.98" cy="-451.33" rx="27" ry="18"/>
<text text-anchor="middle" x="171.98" y="-447.63" font-family="Times New Roman,serif" font-size="14.00">21</text>
</g>
<!-- 20&#45;&#45;21 -->
<g id="edge27" class="edge">
<title>20&#45;&#45;21</title>
<path fill="none" stroke="black" d="M207.06,-420.57C201.15,-425.75 194.51,-431.58 188.6,-436.75"/>
</g>
<!-- 29 -->
<g id="node30" class="node">
<title>29</title>
<ellipse fill="none" stroke="black" cx="220.44" cy="-318.87" rx="27" ry="18"/>
<text text-anchor="middle" x="220.44" y="-315.17" font-family="Times New Roman,serif" font-size="14.00">29</text>
</g>
<!-- 20&#45;&#45;29 -->
<g id="edge82" class="edge">
<title>20&#45;&#45;29</title>
<path fill="none" stroke="black" d="M223.02,-387.5C222.46,-372.72 221.69,-352.09 221.13,-337.31"/>
</g>
<!-- 21&#45;&#45;22 -->
<g id="edge28" class="edge">
<title>21&#45;&#45;22</title>
<path fill="none" stroke="black" d="M149.28,-441.14C140.14,-437.04 129.62,-432.32 120.48,-428.21"/>
</g>
<!-- 21&#45;&#45;23 -->
<g id="edge62" class="edge">
<title>21&#45;&#45;23</title>
<path fill="none" stroke="black" d="M168.65,-433.06C166.16,-419.42 162.78,-400.86 160.29,-387.23"/>
</g>
<!-- 21&#45;&#45;41 -->
<g id="edge56" class="edge">
<title>21&#45;&#45;41</title>
<path fill="none" stroke="black" d="M197.93,-457.44C212.44,-460.86 230.47,-465.1 244.95,-468.52"/>
</g>
<!-- 21&#45;&#45;42 -->
<g id="edge59" class="edge">
<title>21&#45;&#45;42</title>
<path fill="none" stroke="black" d="M145.19,-447.91C132.2,-446.25 116.63,-444.27 103.63,-442.61"/>
</g>
<!-- 22&#45;&#45;42 -->
<g id="edge61" class="edge">
<title>22&#45;&#45;42</title>
<path fill="none" stroke="black" d="M82.88,-432.92C82.77,-433.03 82.66,-433.14 82.55,-433.25"/>
</g>
<!-- 23&#45;&#45;29 -->
<g id="edge34" class="edge">
<title>23&#45;&#45;29</title>
<path fill="none" stroke="black" d="M174.65,-355.05C183.46,-348.09 194.07,-339.71 202.86,-332.76"/>
</g>
<!-- 24&#45;&#45;25 -->
<g id="edge49" class="edge">
<title>24&#45;&#45;25</title>
<path fill="none" stroke="black" d="M185.9,-212.47C185.01,-197.17 183.76,-175.53 182.87,-160.23"/>
</g>
<!-- 28 -->
<g id="node29" class="node">
<title>28</title>
<ellipse fill="none" stroke="black" cx="248.79" cy="-202.54" rx="27" ry="18"/>
<text text-anchor="middle" x="248.79" y="-198.84" font-family="Times New Roman,serif" font-size="14.00">28</text>
</g>
<!-- 24&#45;&#45;28 -->
<g id="edge37" class="edge">
<title>24&#45;&#45;28</title>
<path fill="none" stroke="black" d="M209.63,-220.53C215.01,-218.06 220.74,-215.43 226.12,-212.96"/>
</g>
<!-- 24&#45;&#45;29 -->
<g id="edge36" class="edge">
<title>24&#45;&#45;29</title>
<path fill="none" stroke="black" d="M193.74,-248.74C199.55,-263.99 207.87,-285.86 213.68,-301.1"/>
</g>
<!-- 24&#45;&#45;39 -->
<g id="edge65" class="edge">
<title>24&#45;&#45;39</title>
<path fill="none" stroke="black" d="M178.41,-248.38C174.45,-256.44 169.76,-265.99 165.82,-274.02"/>
</g>
<!-- 25&#45;&#45;26 -->
<g id="edge71" class="edge">
<title>25&#45;&#45;26</title>
<path fill="none" stroke="black" d="M207.31,-135.14C215.17,-133.1 223.81,-130.86 231.67,-128.81"/>
</g>
<!-- 25&#45;&#45;43 -->
<g id="edge72" class="edge">
<title>25&#45;&#45;43</title>
<path fill="none" stroke="black" d="M176.09,-123.97C172.4,-112.5 167.63,-97.63 163.94,-86.13"/>
</g>
<!-- 26&#45;&#45;28 -->
<g id="edge70" class="edge">
<title>26&#45;&#45;28</title>
<path fill="none" stroke="black" d="M255.25,-140.42C253.89,-153.48 252.07,-171 250.71,-184.1"/>
</g>
<!-- 26&#45;&#45;32 -->
<g id="edge44" class="edge">
<title>26&#45;&#45;32</title>
<path fill="none" stroke="black" d="M284.14,-120.12C294.5,-119.33 306.31,-118.43 316.69,-117.63"/>
</g>
<!-- 38 -->
<g id="node39" class="node">
<title>38</title>
<ellipse fill="none" stroke="black" cx="300.93" cy="-169.37" rx="27" ry="18"/>
<text text-anchor="middle" x="300.93" y="-165.67" font-family="Times New Roman,serif" font-size="14.00">38</text>
</g>
<!-- 26&#45;&#45;38 -->
<g id="edge68" class="edge">
<title>26&#45;&#45;38</title>
<path fill="none" stroke="black" d="M271.49,-137.64C276.28,-142.8 281.61,-148.55 286.41,-153.72"/>
</g>
<!-- 27 -->
<g id="node28" class="node">
<title>27</title>
<ellipse fill="none" stroke="black" cx="310.27" cy="-254.11" rx="27" ry="18"/>
<text text-anchor="middle" x="310.27" y="-250.41" font-family="Times New Roman,serif" font-size="14.00">27</text>
</g>
<!-- 27&#45;&#45;28 -->
<g id="edge83" class="edge">
<title>27&#45;&#45;28</title>
<path fill="none" stroke="black" d="M293.14,-239.74C284.62,-232.59 274.34,-223.97 265.82,-216.83"/>
</g>
<!-- 27&#45;&#45;30 -->
<g id="edge38" class="edge">
<title>27&#45;&#45;30</title>
<path fill="none" stroke="black" d="M309.28,-272.3C308.62,-284.46 307.75,-300.38 307.09,-312.56"/>
</g>
<!-- 31 -->
<g id="node32" class="node">
<title>31</title>
<ellipse fill="none" stroke="black" cx="368.33" cy="-200.16" rx="27" ry="18"/>
<text text-anchor="middle" x="368.33" y="-196.46" font-family="Times New Roman,serif" font-size="14.00">31</text>
</g>
<!-- 27&#45;&#45;31 -->
<g id="edge41" class="edge">
<title>27&#45;&#45;31</title>
<path fill="none" stroke="black" d="M326.14,-239.37C334.33,-231.75 344.29,-222.49 352.48,-214.88"/>
</g>
<!-- 28&#45;&#45;38 -->
<g id="edge67" class="edge">
<title>28&#45;&#45;38</title>
<path fill="none" stroke="black" d="M268.5,-190C272.65,-187.36 277.04,-184.57 281.19,-181.93"/>
</g>
<!-- 29&#45;&#45;30 -->
<g id="edge33" class="edge">
<title>29&#45;&#45;30</title>
<path fill="none" stroke="black" d="M247.07,-322.61C257.29,-324.04 268.94,-325.68 279.18,-327.12"/>
</g>
<!-- 29&#45;&#45;39 -->
<g id="edge66" class="edge">
<title>29&#45;&#45;39</title>
<path fill="none" stroke="black" d="M197.68,-308.88C192.03,-306.4 185.98,-303.75 180.33,-301.27"/>
</g>
<!-- 30&#45;&#45;34 -->
<g id="edge40" class="edge">
<title>30&#45;&#45;34</title>
<path fill="none" stroke="black" d="M326.46,-318.83C337.37,-312.37 350.76,-304.44 361.68,-297.97"/>
</g>
<!-- 30&#45;&#45;35 -->
<g id="edge32" class="edge">
<title>30&#45;&#45;35</title>
<path fill="none" stroke="black" d="M325.89,-343.29C334.57,-348.72 344.73,-355.08 353.41,-360.51"/>
</g>
<!-- 31&#45;&#45;32 -->
<g id="edge87" class="edge">
<title>31&#45;&#45;32</title>
<path fill="none" stroke="black" d="M363.16,-182.22C359.03,-167.86 353.26,-147.82 349.12,-133.46"/>
</g>
<!-- 31&#45;&#45;34 -->
<g id="edge42" class="edge">
<title>31&#45;&#45;34</title>
<path fill="none" stroke="black" d="M371.25,-218.34C373.59,-232.88 376.85,-253.19 379.19,-267.72"/>
</g>
<!-- 31&#45;&#45;36 -->
<g id="edge43" class="edge">
<title>31&#45;&#45;36</title>
<path fill="none" stroke="black" d="M395.32,-196.83C402.17,-195.99 409.54,-195.08 416.38,-194.24"/>
</g>
<!-- 31&#45;&#45;38 -->
<g id="edge81" class="edge">
<title>31&#45;&#45;38</title>
<path fill="none" stroke="black" d="M345.89,-189.91C338.69,-186.62 330.71,-182.98 323.51,-179.68"/>
</g>
<!-- 32&#45;&#45;33 -->
<g id="edge13" class="edge">
<title>32&#45;&#45;33</title>
<path fill="none" stroke="black" d="M371.13,-113.34C378.34,-112.75 386.13,-112.12 393.34,-111.54"/>
</g>
<!-- 32&#45;&#45;44 -->
<g id="edge88" class="edge">
<title>32&#45;&#45;44</title>
<path fill="none" stroke="black" d="M348.96,-97.65C353.84,-80.16 361.23,-53.67 366.13,-36.11"/>
</g>
<!-- 33&#45;&#45;36 -->
<g id="edge23" class="edge">
<title>33&#45;&#45;36</title>
<path fill="none" stroke="black" d="M425.45,-127.45C429.2,-140.97 434.31,-159.37 438.06,-172.88"/>
</g>
<!-- 40&#45;&#45;43 -->
<g id="edge74" class="edge">
<title>40&#45;&#45;43</title>
<path fill="none" stroke="black" d="M101.72,-75.47C111.23,-74.25 121.93,-72.88 131.43,-71.67"/>
</g>
</g>
</svg>
