<?xml version="1.0" encoding="UTF-8" standalone="no"?>
<!DOCTYPE svg PUBLIC "-//W3C//DTD SVG 1.1//EN"
 "http://www.w3.org/Graphics/SVG/1.1/DTD/svg11.dtd">
<!-- Generated by graphviz version 8.0.1 (20230327.1645)
 -->
<!-- Title: Some Unique Identifier Pages: 1 -->
<svg width="299pt" height="210pt"
 viewBox="0.00 0.00 298.92 210.04" xmlns="http://www.w3.org/2000/svg" xmlns:xlink="http://www.w3.org/1999/xlink">
<g id="graph0" class="graph" transform="scale(1 1) rotate(0) translate(4 206.04)">
<title>Some Unique Identifier</title>
<polygon fill="white" stroke="none" points="-4,4 -4,-206.04 294.92,-206.04 294.92,4 -4,4"/>
<!-- A -->
<g id="node1" class="node">
<title>A</title>
<ellipse fill="none" stroke="black" cx="27" cy="-99.3" rx="27" ry="18"/>
<text text-anchor="middle" x="27" y="-95.6" font-family="Times New Roman,serif" font-size="14.00">A</text>
</g>
<!-- B -->
<g id="node2" class="node">
<title>B</title>
<ellipse fill="none" stroke="black" cx="44.66" cy="-172.91" rx="27" ry="18"/>
<text text-anchor="middle" x="44.66" y="-169.21" font-family="Times New Roman,serif" font-size="14.00">B</text>
</g>
<!-- A&#45;&#45;B -->
<g id="edge1" class="edge">
<title>A&#45;&#45;B</title>
<path fill="none" stroke="black" d="M31.36,-117.49C34.08,-128.82 37.56,-143.33 40.28,-154.67"/>
</g>
<!-- C -->
<g id="node3" class="node">
<title>C</title>
<ellipse fill="none" stroke="black" cx="122.48" cy="-157.93" rx="27" ry="18"/>
<text text-anchor="middle" x="122.48" y="-154.23" font-family="Times New Roman,serif" font-size="14.00">C</text>
</g>
<!-- B&#45;&#45;C -->
<g id="edge2" class="edge">
<title>B&#45;&#45;C</title>
<path fill="none" stroke="black" d="M71.01,-167.84C79.12,-166.28 88.05,-164.56 96.16,-163"/>
</g>
<!-- D -->
<g id="node4" class="node">
<title>D</title>
<ellipse fill="none" stroke="black" cx="183.11" cy="-100.5" rx="27" ry="18"/>
<text text-anchor="middle" x="183.11" y="-96.8" font-family="Times New Roman,serif" font-size="14.00">D</text>
</g>
<!-- C&#45;&#45;D -->
<g id="edge3" class="edge">
<title>C&#45;&#45;D</title>
<path fill="none" stroke="black" d="M138.1,-143.14C147.08,-134.64 158.33,-123.97 167.34,-115.44"/>
</g>
<!-- E -->
<g id="node5" class="node">
<title>E</title>
<ellipse fill="none" stroke="black" cx="252.02" cy="-148.69" rx="27" ry="18"/>
<text text-anchor="middle" x="252.02" y="-144.99" font-family="Times New Roman,serif" font-size="14.00">E</text>
</g>
<!-- D&#45;&#45;E -->
<g id="edge4" class="edge">
<title>D&#45;&#45;E</title>
<path fill="none" stroke="black" d="M201.94,-113.67C211.67,-120.47 223.5,-128.74 233.22,-135.54"/>
</g>
<!-- F -->
<g id="node6" class="node">
<title>F</title>
<ellipse fill="none" stroke="black" cx="199.49" cy="-184.04" rx="27" ry="18"/>
<text text-anchor="middle" x="199.49" y="-180.34" font-family="Times New Roman,serif" font-size="14.00">F</text>
</g>
<!-- D&#45;&#45;F -->
<g id="edge5" class="edge">
<title>D&#45;&#45;F</title>
<path fill="none" stroke="black" d="M186.67,-118.63C189.41,-132.64 193.2,-151.95 195.94,-165.95"/>
</g>
<!-- G -->
<g id="node7" class="node">
<title>G</title>
<ellipse fill="none" stroke="black" cx="263.92" cy="-83.18" rx="27" ry="18"/>
<text text-anchor="middle" x="263.92" y="-79.48" font-family="Times New Roman,serif" font-size="14.00">G</text>
</g>
<!-- D&#45;&#45;G -->
<g id="edge6" class="edge">
<title>D&#45;&#45;G</title>
<path fill="none" stroke="black" d="M209.13,-94.93C218.35,-92.95 228.73,-90.72 237.96,-88.75"/>
</g>
<!-- H -->
<g id="node8" class="node">
<title>H</title>
<ellipse fill="none" stroke="black" cx="225.7" cy="-28.33" rx="27" ry="18"/>
<text text-anchor="middle" x="225.7" y="-24.63" font-family="Times New Roman,serif" font-size="14.00">H</text>
</g>
<!-- D&#45;&#45;H -->
<g id="edge7" class="edge">
<title>D&#45;&#45;H</title>
<path fill="none" stroke="black" d="M193.21,-83.4C200,-71.89 208.91,-56.79 215.68,-45.31"/>
</g>
<!-- I -->
<g id="node9" class="node">
<title>I</title>
<ellipse fill="none" stroke="black" cx="102.92" cy="-74.67" rx="27" ry="18"/>
<text text-anchor="middle" x="102.92" y="-70.97" font-family="Times New Roman,serif" font-size="14.00">I</text>
</g>
<!-- D&#45;&#45;I -->
<g id="edge8" class="edge">
<title>D&#45;&#45;I</title>
<path fill="none" stroke="black" d="M158.62,-92.61C148.76,-89.44 137.41,-85.78 127.54,-82.6"/>
</g>
<!-- J -->
<g id="node10" class="node">
<title>J</title>
<ellipse fill="none" stroke="black" cx="162.62" cy="-18" rx="27" ry="18"/>
<text text-anchor="middle" x="162.62" y="-14.3" font-family="Times New Roman,serif" font-size="14.00">J</text>
</g>
<!-- D&#45;&#45;J -->
<g id="edge9" class="edge">
<title>D&#45;&#45;J</title>
<path fill="none" stroke="black" d="M178.67,-82.6C175.25,-68.86 170.56,-49.96 167.13,-36.15"/>
</g>
<!-- I&#45;&#45;A -->
<g id="edge10" class="edge">
<title>I&#45;&#45;A</title>
<path fill="none" stroke="black" d="M78.48,-82.6C69.9,-85.38 60.25,-88.51 51.65,-91.3"/>
</g>
</g>
</svg>
